Coordinates
version=1
nRows=26
nColumns=24
inDegrees=yes

Units are S.I. units (second, meters, Newtons, ...)
Angles are in degrees.

endheader
time	pelvis_tilt	pelvis_list	pelvis_rotation	pelvis_tx	pelvis_ty	pelvis_tz	hip_flexion_r	hip_adduction_r	hip_rotation_r	knee_angle_r	ankle_angle_r	subtalar_angle_r	mtp_angle_r	hip_flexion_l	hip_adduction_l	hip_rotation_l	knee_angle_l	ankle_angle_l	subtalar_angle_l	mtp_angle_l	lumbar_extension	lumbar_bending	lumbar_rotation
      3.99500000	    -18.58681900	     -1.74018486	     -3.57168378	     -1.31825753	      0.00770929	     -0.27228928	      7.18528352	      8.09937548	     10.02820070	     -3.75283629	     -1.95310959	     -0.44340653	      3.93704982	     43.81303705	      0.37763609	      3.88321586	    -48.56979970	      0.87730436	     -3.22516855	    -24.39598465	     12.78760598	      1.18685053	      6.66679504
      4.00000000	    -18.40539881	     -1.61876875	     -3.86067101	     -1.31136751	      0.00777465	     -0.27234155	      6.28186684	      7.91053669	      9.89212456	     -3.31505844	     -2.07201611	      0.03741531	      4.18729567	     43.89764991	      0.33101437	      3.81661243	    -47.00351787	      1.05220030	     -3.21530044	    -24.64694694	     12.54431436	      1.19401604	      6.90566382
      4.00500000	    -18.42073900	     -1.48430210	     -4.12870956	     -1.30444790	      0.00747052	     -0.27226917	      5.62597991	      7.73807906	      9.81183420	     -2.95912363	     -2.13755971	      0.35560045	      4.31424741	     44.16255800	      0.27571399	      3.80755037	    -45.38476098	      1.24925647	     -3.00582709	    -24.76569729	     12.53065114	      1.16820126	      7.07599466
      4.01000000	    -18.30517369	     -1.38131281	     -4.39973747	     -1.29753618	      0.00718053	     -0.27242236	      4.86019036	      7.55607030	      9.39355733	     -2.57726336	     -2.39291528	      1.01794419	      6.19973966	     44.26521992	      0.22369522	      3.82513362	    -43.78133244	      1.77916123	     -2.74957094	    -26.64148048	     12.36143205	      1.19859901	      7.27245226
      4.01500000	    -18.21111369	     -1.25109880	     -4.68812638	     -1.29064080	      0.00680448	     -0.27233894	      4.10724150	      7.37757167	      9.42252513	     -2.26094588	     -2.46842084	      1.21180759	      6.22909241	     44.33729090	      0.13643546	      3.78823442	    -42.03596994	      1.88100086	     -2.60901223	    -26.86508845	     12.21363528	      1.17845535	      7.45966469
      4.02000000	    -18.14174697	     -1.13946887	     -4.96116445	     -1.28374448	      0.00627689	     -0.27231431	      3.42287937	      7.21470419	      9.33004216	     -2.02406637	     -2.44313477	      1.59345316	      6.37955128	     44.40329921	      0.04112539	      3.81158615	    -40.24626160	      2.00294110	     -2.38792731	    -27.13311879	     12.08872325	      1.17794598	      7.63511548
      4.02500000	    -18.07526462	     -1.02531093	     -5.23234988	     -1.27684677	      0.00563967	     -0.27230407	      2.77465677	      7.04849744	      9.18934997	     -1.84685400	     -2.37061002	      2.02176273	      6.62169071	     44.43299862	     -0.05353585	      3.87666186	    -38.40156727	      2.13959421	     -2.13248866	    -27.47229474	     11.96610428	      1.17455851	      7.80340633
      4.03000000	    -17.99345327	     -0.95109389	     -5.35977788	     -1.26988648	      0.00485208	     -0.27259511	      2.13188081	      6.90089729	      8.69634649	     -1.69020364	     -2.32044134	      2.62831262	      7.62430607	     44.42536701	     -0.04873021	      4.17545940	    -36.55450216	      2.56253752	     -1.77589616	    -28.96897528	     11.82782591	      1.19640398	      7.78840451
      4.03500000	    -18.05228991	     -0.82131168	     -5.72825292	     -1.26306550	      0.00389066	     -0.27242281	      1.69331924	      6.74796458	      8.84696379	     -1.65608973	     -2.23116108	      2.76392364	      7.75744992	     44.52688552	     -0.25269532	      4.15771376	    -34.63111864	      2.77499947	     -1.33971354	    -29.17788517	     11.82756302	      1.20946960	      8.07233223
      4.04000000	    -18.04434540	     -0.71485123	     -5.99365816	     -1.25617979	      0.00284835	     -0.27255017	      1.20241748	      6.57914228	      8.44250555	     -1.54135276	     -2.44640079	      3.22692499	     10.40843237	     44.56343705	     -0.35169195	      4.40300926	    -32.88191095	      4.34697019	     -0.43949654	    -35.16188082	     11.75461962	      1.23169205	      8.22724726
      4.04500000	    -17.97230294	     -0.56258273	     -6.25343350	     -1.24929812	      0.00189304	     -0.27245691	      0.61677722	      6.37684340	      8.63469391	     -1.50819447	     -2.33982468	      3.17348664	     10.24318798	     44.43471425	     -0.45686024	      4.56040655	    -30.82534617	      4.57092268	     -0.00558610	    -35.40179898	     11.61282260	      1.16541199	      8.36886747
      4.05000000	    -17.98225416	     -0.54403765	     -6.52283039	     -1.24246392	      0.00061883	     -0.27227319	      0.17424510	      6.35042178	      8.71403663	     -1.63129020	     -2.06800232	      3.30424312	      9.75592018	     44.56769790	     -0.75414066	      4.84440241	    -29.52492827	     12.05593549	      2.32018386	    -68.58988012	     11.53799237	      1.24404646	      8.50320858
      4.05500000	    -18.04732605	     -0.41169857	     -6.77753794	     -1.23567278	     -0.00065565	     -0.27226286	     -0.16108199	      6.18530588	      8.78649611	     -1.77718463	     -1.85234671	      3.41786202	      9.87711125	     44.55778081	     -0.89787357	      5.05829231	    -27.44170200	     12.26993974	      2.70922889	    -68.61262288	     11.52495972	      1.22167626	      8.63557819
      4.06000000	    -18.11318570	     -0.28909594	     -7.01544556	     -1.22884797	     -0.00202955	     -0.27230055	     -0.47734668	      6.02915113	      8.84910246	     -1.96365521	     -1.62391688	      3.51159637	     10.03504633	     44.52652162	     -1.04053919	      5.32013548	    -25.35218792	     12.54799567	      3.06864086	    -68.66483585	     11.51373995	      1.21172569	      8.75164315
      4.06500000	    -18.17739764	     -0.17239277	     -7.24894980	     -1.22208719	     -0.00345961	     -0.27234349	     -0.76054624	      5.88049094	      8.93494698	     -2.20897046	     -1.38347490	      3.58202116	     10.24216306	     44.48021589	     -1.19613234	      5.61127294	    -23.25547821	     12.79140019	      3.40966260	    -68.78115937	     11.48286541	      1.20336675	      8.86913500
      4.07000000	    -18.26964246	     -0.07163623	     -7.48737113	     -1.21530055	     -0.00501442	     -0.27237245	     -0.99604623	      5.75500375	      9.05723779	     -2.49540142	     -1.14385770	      3.60147616	     10.46830265	     44.45304441	     -1.37996855	      5.91828692	    -21.18012223	     13.05449931	      3.70629266	    -68.92493756	     11.48251552	      1.21192293	      8.98547977
      4.07500000	    -18.20619076	      0.01529564	     -7.64723910	     -1.20848844	     -0.00648726	     -0.27253245	     -1.40721259	      5.61112759	      9.04676293	     -2.73088707	     -1.06175450	      3.56542876	     11.53292820	     44.23071188	     -1.49820325	      6.36995103	    -19.08133502	     13.45858576	      3.86212804	    -70.26064553	     11.30491849	      1.19900691	      9.01786588
      4.08000000	    -18.44978049	      0.11894503	     -7.96328542	     -1.20164414	     -0.00834053	     -0.27244155	     -1.42552304	      5.50724057	      9.36027524	     -3.13233751	     -0.80082051	      3.49667421	     11.68964555	     44.35915780	     -1.77642868	      6.55486913	    -17.09497328	     13.67511566	      4.09681793	    -70.39403624	     11.47332157	      1.23889286	      9.21898617
      4.08500000	    -18.59429332	      0.20125242	     -8.26686647	     -1.19478817	     -0.01013376	     -0.27239661	     -1.53825289	      5.40740893	      9.67528900	     -3.56033774	     -0.55848287	      3.42407814	     11.87784221	     44.35482917	     -2.04423757	      6.84588470	    -15.12092130	     13.84315686	      4.15655290	    -70.56443170	     11.52748642	      1.28982998	      9.41085156
      4.09000000	    -18.72060398	      0.30908051	     -8.57549601	     -1.18784795	     -0.01193684	     -0.27234934	     -1.65719940	      5.27095717	     10.02190866	     -4.01182165	     -0.31571898	      3.35933902	     12.11049988	     44.31074818	     -2.28994923	      7.16943557	    -13.18253403	     13.94063909	      4.05741432	    -70.76958345	     11.57078316	      1.31326735	      9.61635399
      4.09500000	    -18.79187676	      0.45436546	     -8.78897628	     -1.18074959	     -0.01374320	     -0.27241769	     -1.85236992	      5.07372873	     10.31893705	     -4.42995177	     -0.10725214	      3.21981106	     12.58857055	     44.17063386	     -2.41441478	      7.76355737	    -11.24232281	     13.90828589	      3.58848416	    -71.25426399	     11.57467324	      1.26199379	      9.74162175
      4.10000000	    -18.93560830	      0.48733816	     -9.15446073	     -1.17389641	     -0.01560830	     -0.27228427	     -1.88913175	      5.02049651	     10.72326949	     -5.00252974	      0.11702549	      3.27027067	     12.83380246	     44.21854932	     -2.77860523	      7.93431602	     -9.60656774	     14.00145442	      3.53635403	    -71.36087646	     11.60246124	      1.37032115	     10.02091968
      4.10500000	    -19.07903497	      0.67141107	     -9.40959606	     -1.16661962	     -0.01749639	     -0.27232292	     -1.96724500	      4.77857335	     11.08621786	     -5.48068988	      0.26227946	      3.19168844	     13.44653136	     44.14888086	     -2.90167048	      8.61014537	     -7.85472512	     13.78154798	      2.67351115	    -71.77495573	     11.71523494	      1.30523288	     10.17894902
      4.11000000	    -19.21580853	      0.76437284	     -9.73059136	     -1.15949909	     -0.01938725	     -0.27229030	     -2.00538370	      4.63480820	     11.47236599	     -6.03856436	      0.36805365	      3.23685316	     14.25714839	     44.16026379	     -3.15695362	      9.10874490	     -6.38525902	     13.67482990	      2.04810082	    -72.08436846	     11.77386505	      1.34561497	     10.43061436
      4.11500000	    -19.38483475	      0.88948504	    -10.10967533	     -1.15230524	     -0.02128122	     -0.27206970	     -1.96904326	      4.47654015	     11.93774058	     -6.68721771	      0.53698077	      3.32450324	     14.56578681	     44.29036047	     -3.43622754	      9.16956473	     -5.21288167	     13.68454560	      1.81976531	    -72.13339303	     11.88374045	      1.35508809	     10.77105651
      4.12000000	    -19.57238048	      1.02771920	    -10.47042543	     -1.14500613	     -0.02318593	     -0.27187745	     -1.90568913	      4.30014596	     12.41653326	     -7.34517379	      0.65956173	      3.43737772	     14.96459559	     44.42839619	     -3.67883809	      9.42016322	     -4.15326864	     13.55771287	      1.32101102	    -72.20296674	     12.02408924	      1.34731215	     11.10109832
